<svg id="SvgjsSvg1001" width="288" height="288" xmlns="http://www.w3.org/2000/svg" version="1.1" xmlns:xlink="http://www.w3.org/1999/xlink" xmlns:svgjs="http://svgjs.com/svgjs"><defs id="SvgjsDefs1002"></defs><g id="SvgjsG1008" transform="matrix(1,0,0,1,0,0)"><svg xmlns="http://www.w3.org/2000/svg" width="288" height="288" version="1.0" viewBox="0 0 856 696"><path d="M1245 6693 c-207 -37 -435 -155 -579 -299 -103 -103 -209 -277 -259-424 -60 -176 -57 -45 -57 -2520 0 -2010 2 -2275 16 -2355 76 -440 396 -780
831 -882 75 -17 200 -18 3063 -18 l2985 0 98 27 c424 117 717 441 799 883 19
101 19 4585 0 4692 -17 99 -66 244 -113 331 -149 280 -380 461 -699 550 l-95
27 -2955 1 c-2542 2 -2966 0 -3035 -13z m4925 -1313 c389 -30 682 -159 917
-404 102 -105 159 -189 206 -301 106 -254 102 -557 -9 -779 -42 -84 -144 -201
-235 -272 -78 -60 -228 -130 -334 -156 -86 -21 -104 -34 -62 -42 341 -74 463
-131 622 -292 143 -144 212 -296 234 -522 15 -147 -2 -303 -48 -432 -55 -155
-127 -267 -255 -395 -193 -192 -451 -321 -785 -392 -119 -26 -141 -27 -406
-28 -254 0 -291 2 -394 23 -487 99 -861 364 -1016 721 -18 42 -38 92 -44 111
-19 62 -41 193 -41 248 l0 52 420 0 419 0 6 -37 c38 -224 217 -375 501 -424
89 -15 278 -7 358 15 238 66 386 221 417 436 28 195 -80 395 -266 491 -154 80
-264 99 -576 99 l-239 0 0 309 0 310 263 3 c292 5 321 10 463 77 180 86 274
236 274 438 -1 189 -89 333 -256 419 -88 45 -172 63 -291 64 -326 1 -574 -178
-609 -439 l-7 -51 -400 0 -400 0 6 93 c14 241 121 462 316 658 148 147 317
249 528 318 229 75 463 101 723 81z m-2120 -395 l0 -345 -595 0 -595 0 0
-1615 0 -1615 -415 0 -415 0 0 1615 0 1615 -600 0 -600 0 0 345 0 345 1610 0
1610 0 0 -345z" transform="matrix(.1 0 0 -.1 0 696)" fill="#dd6b20" class="color000 svgShape"></path></svg></g></svg>